<?xml version="1.0" encoding="UTF-8"?>
<svg id="_图层_1" data-name="图层_1" xmlns="http://www.w3.org/2000/svg" version="1.1" xmlns:xlink="http://www.w3.org/1999/xlink" viewBox="0 0 512 512">
  <!-- Generator: Adobe Illustrator 29.0.0, SVG Export Plug-In . SVG Version: 2.1.0 Build 186)  -->
  <defs>
    <style>
      .st0 {
        fill: #3d2b2d;
      }

      .st1 {
        fill: #ffe17d;
      }

      .st2 {
        fill: #ffc369;
      }

      .st3 {
        fill: none;
        stroke: #3d2b2d;
        stroke-linecap: round;
        stroke-linejoin: round;
        stroke-width: 39px;
      }

      .st4 {
        fill: #ffaa5f;
      }

      .st5 {
        fill: url(#_未命名的渐变);
      }
    </style>
    <linearGradient id="_未命名的渐变" data-name="未命名的渐变" x1="40" y1="472" x2="472" y2="40" gradientTransform="translate(0 512) scale(1 -1)" gradientUnits="userSpaceOnUse">
      <stop offset="0" stop-color="#60a5fa"/>
      <stop offset="1" stop-color="#385575"/>
    </linearGradient>
  </defs>
  <g id="_图层_6">
    <g id="_图层_5">
      <rect class="st5" width="512" height="512" rx="136.4" ry="136.4"/>
    </g>
  </g>
  <g id="_图层_4">
    <g>
      <g id="_图层_3-2">
        <g>
          <path class="st3" d="M424.5,235.6l-337,20.5,56.5-39.7c4.5-3.1,10.1-4.2,15.5-2.5,3.7,1.1,7.3,1.7,11,1.7,14.4,0,26.2-8.7,26.2-19.4s0-2-.3-3.1c-1.4-7,1.4-14.4,7.3-18.3l94.5-66.1c-.3.6,119,8.2,126.3,126.9h0Z"/>
          <g>
            <path class="st3" d="M424.5,235.6v85.5c0,9-6.8,16.9-16,17.7l-72,7.9c-6.2.6-12.1-2.2-15.8-7-7.3-9-20.5-10.7-29.5-3.4-2.5,2-4.5,4.2-5.6,7-2.5,5.6-7.9,9.6-14.1,10.4l-164,17.7c-9.8,1.1-18.6-5.9-19.7-15.8v-99.6l336.7-20.5h0Z"/>
            <ellipse class="st3" cx="352" cy="195.7" rx="21.4" ry="16"/>
            <ellipse class="st3" cx="267.6" cy="190.3" rx="17.4" ry="12.9"/>
            <ellipse class="st3" cx="309.2" cy="147.9" rx="17.4" ry="12.9"/>
          </g>
          <path class="st3" d="M389.7,279.8c0,9-7.3,16-16,16s-16.3-7-16.3-16,7.3-16,16-16,16.3,7,16.3,16Z"/>
          <path class="st3" d="M158.2,295.8c0,7.6-6.2,13.8-13.8,13.8s-13.8-6.2-13.8-13.8,6.2-13.8,13.8-13.8,13.8,6.2,13.8,13.8Z"/>
          <circle class="st3" cx="223.2" cy="303.4" r="18.9" transform="translate(-112.1 475.1) rotate(-80.8)"/>
        </g>
      </g>
      <g id="_图层_3-3">
        <g>
          <path class="st1" d="M424.5,235.6l-337,20.5,56.5-39.7c4.5-3.1,10.1-4.2,15.5-2.5,3.7,1.1,7.3,1.7,11,1.7,14.4,0,26.2-8.7,26.2-19.4s0-2-.3-3.1c-1.4-7,1.4-14.4,7.3-18.3l94.5-66.1c-.3.6,119,8.2,126.3,126.9h0Z"/>
          <g>
            <path class="st2" d="M424.5,235.6v85.5c0,9-6.8,16.9-16,17.7l-72,7.9c-6.2.6-12.1-2.2-15.8-7-7.3-9-20.5-10.7-29.5-3.4-2.5,2-4.5,4.2-5.6,7-2.5,5.6-7.9,9.6-14.1,10.4l-164,17.7c-9.8,1.1-18.6-5.9-19.7-15.8v-99.6l336.7-20.5h0Z"/>
            <ellipse class="st2" cx="352" cy="195.7" rx="21.4" ry="16"/>
            <ellipse class="st2" cx="267.6" cy="190.3" rx="17.4" ry="12.9"/>
            <ellipse class="st2" cx="309.2" cy="147.9" rx="17.4" ry="12.9"/>
          </g>
          <path class="st4" d="M389.7,279.8c0,9-7.3,16-16,16s-16.3-7-16.3-16,7.3-16,16-16,16.3,7,16.3,16Z"/>
          <path class="st4" d="M158.2,295.8c0,7.6-6.2,13.8-13.8,13.8s-13.8-6.2-13.8-13.8,6.2-13.8,13.8-13.8,13.8,6.2,13.8,13.8Z"/>
          <circle class="st4" cx="223.2" cy="303.4" r="18.9" transform="translate(-112.1 475.1) rotate(-80.8)"/>
        </g>
      </g>
      <g>
        <path class="st0" d="M207.8,302c-2.4,0-4.7-.9-6.4-2.7l-33.2-33.2c-1.7-1.7-2.6-4-2.6-6.4s.9-4.7,2.7-6.4l33.2-33.2c1.7-1.7,4-2.6,6.4-2.6,5,0,9.1,4.1,9.1,9.1s-.9,4.7-2.7,6.4l-26.8,26.8,26.8,26.8c1.7,1.7,2.6,4,2.6,6.4,0,5-4.1,9.1-9.1,9.1h0Z"/>
        <path class="st0" d="M304.4,305c-5,0-9.1-4.1-9.1-9.1s.9-4.7,2.7-6.4l26.8-26.8-26.8-26.8c-1.7-1.7-2.7-4-2.7-6.4,0-5,4.1-9.1,9.1-9.1s4.7.9,6.4,2.7l33.2,33.2c1.7,1.7,2.7,4,2.7,6.4s-.9,4.7-2.7,6.4l-33.2,33.2c-1.7,1.7-4,2.6-6.4,2.6h0Z"/>
        <path class="st0" d="M228.9,329.2c-5,0-9.1-4.1-9.1-9.1s.2-2.4.7-3.5l54.3-120.8c1.4-3.4,4.7-5.6,8.4-5.6s9.1,4.1,9.1,9.1-.2,2.4-.7,3.5l-54.3,120.8c-1.4,3.4-4.7,5.6-8.4,5.6h0Z"/>
      </g>
    </g>
  </g>
</svg>